<svg data-v-423bf9ae="" xmlns="http://www.w3.org/2000/svg" viewBox="0 0 712 90" class="iconLeft"><!----><!----><!----><g data-v-423bf9ae="" id="52ef1730-84b7-4b9e-b6dc-bdd90a94adfe" fill="black" transform="matrix(7.083825042315778,0,0,7.083825042315778,121.21132450850729,-15.460448556253084)"><path d="M4.73 12.29L4.73 12.29L4.73 12.29Q5.67 12.29 6.31 11.51L6.31 11.51L6.31 11.51Q6.94 10.72 6.94 9.44L6.94 9.44L6.94 5.01L6.94 5.01Q6.82 4.73 6.06 4.73L6.06 4.73L6.06 4.44L8.30 4.44L8.30 4.73L8.30 4.73Q7.55 4.73 7.42 5.01L7.42 5.01L7.42 9.16L7.42 9.16Q7.42 10.98 6.62 11.87L6.62 11.87L6.62 11.87Q5.81 12.77 4.59 12.77L4.59 12.77L4.59 12.77Q1.23 12.77 1.23 9.16L1.23 9.16L1.23 5.01L1.23 5.01Q1.11 4.73 0.35 4.73L0.35 4.73L0.35 4.44L3.40 4.44L3.40 4.73L3.40 4.73Q2.65 4.73 2.52 5.01L2.52 5.01L2.52 9.35L2.52 9.35Q2.52 10.74 3.14 11.52L3.14 11.52L3.14 11.52Q3.75 12.29 4.73 12.29ZM12.29 12.63L9.24 12.63L9.24 12.33L9.24 12.33Q10.00 12.33 10.12 12.05L10.12 12.05L10.12 5.01L10.12 5.01Q10.00 4.73 9.24 4.73L9.24 4.73L9.24 4.44L12.40 4.44L12.40 4.44Q14.14 4.44 15.04 5.07L15.04 5.07L15.04 5.07Q15.93 5.70 15.93 6.51L15.93 6.51L15.93 6.51Q15.93 7.28 15.47 7.86L15.47 7.86L15.47 7.86Q15.01 8.44 14.10 8.71L14.10 8.71L15.96 12.04L15.96 12.04Q16.10 12.33 16.88 12.33L16.88 12.33L16.88 12.63L16.28 12.63L16.28 12.63Q15.30 12.63 15.01 12.52L15.01 12.52L15.01 12.52Q14.71 12.40 14.42 11.90L14.42 11.90L12.73 8.90L11.41 8.90L11.41 12.05L11.41 12.05Q11.54 12.33 12.29 12.33L12.29 12.33L12.29 12.63ZM12.40 4.91L11.41 4.91L11.41 8.43L12.57 8.43L12.57 8.43Q13.69 8.43 14.11 7.99L14.11 7.99L14.11 7.99Q14.53 7.56 14.53 6.52L14.53 6.52L14.53 6.52Q14.53 5.75 14.06 5.33L14.06 5.33L14.06 5.33Q13.59 4.91 12.40 4.91L12.40 4.91ZM20.57 8.57L19.54 8.57L19.54 12.15L20.73 12.15L20.73 12.15Q22.69 12.15 22.69 10.25L22.69 10.25L22.69 10.25Q22.69 9.59 22.20 9.08L22.20 9.08L22.20 9.08Q21.71 8.57 20.57 8.57L20.57 8.57ZM19.95 4.91L19.54 4.91L19.54 8.16L20.12 8.16L20.12 8.16Q22.08 8.16 22.08 6.38L22.08 6.38L22.08 6.38Q22.08 4.91 19.95 4.91L19.95 4.91ZM20.73 12.63L17.37 12.63L17.37 12.33L17.37 12.33Q18.13 12.33 18.26 12.05L18.26 12.05L18.26 5.01L18.26 5.01Q18.13 4.73 17.37 4.73L17.37 4.73L17.37 4.44L19.95 4.44L19.95 4.44Q21.70 4.44 22.59 5.01L22.59 5.01L22.59 5.01Q23.48 5.59 23.48 6.37L23.48 6.37L23.48 6.37Q23.48 7.80 21.99 8.30L21.99 8.30L21.99 8.30Q23.04 8.54 23.57 9.08L23.57 9.08L23.57 9.08Q24.09 9.62 24.09 10.23L24.09 10.23L24.09 10.23Q24.09 11.30 23.25 11.96L23.25 11.96L23.25 11.96Q22.40 12.63 20.73 12.63L20.73 12.63ZM32.20 12.63L29.13 12.63L29.13 12.33L29.13 12.33Q29.78 12.33 29.95 12.17L29.95 12.17L29.16 10.02L26.47 10.02L25.75 12.08L25.75 12.08Q25.89 12.33 26.61 12.33L26.61 12.33L26.61 12.63L24.32 12.63L24.32 12.33L24.32 12.33Q25.10 12.33 25.20 12.04L25.20 12.04L27.92 4.44L28.59 4.44L31.30 12.04L31.30 12.04Q31.40 12.33 32.20 12.33L32.20 12.33L32.20 12.63ZM28.99 9.56L27.80 6.30L26.64 9.56L28.99 9.56ZM34.90 12.63L32.66 12.63L32.66 12.33L32.66 12.33Q33.42 12.33 33.54 12.05L33.54 12.05L33.54 5.01L33.54 5.01Q33.42 4.73 32.66 4.73L32.66 4.73L32.66 4.44L34.54 4.44L39.17 10.16L39.17 5.01L39.17 5.01Q39.05 4.73 38.29 4.73L38.29 4.73L38.29 4.44L40.53 4.44L40.53 4.73L40.53 4.73Q39.77 4.73 39.65 5.01L39.65 5.01L39.65 12.63L39.52 12.63L34.02 5.67L34.02 12.05L34.02 12.05Q34.15 12.33 34.90 12.33L34.90 12.33L34.90 12.63ZM47.99 12.63L44.94 12.63L44.94 12.33L44.94 12.33Q45.70 12.33 45.82 12.05L45.82 12.05L45.82 5.01L45.82 5.01Q45.70 4.73 44.94 4.73L44.94 4.73L44.94 4.44L48.10 4.44L48.10 4.44Q49.84 4.44 50.74 5.07L50.74 5.07L50.74 5.07Q51.63 5.70 51.63 6.51L51.63 6.51L51.63 6.51Q51.63 7.28 51.17 7.86L51.17 7.86L51.17 7.86Q50.71 8.44 49.80 8.71L49.80 8.71L51.66 12.04L51.66 12.04Q51.80 12.33 52.58 12.33L52.58 12.33L52.58 12.63L51.98 12.63L51.98 12.63Q51.00 12.63 50.71 12.52L50.71 12.52L50.71 12.52Q50.41 12.40 50.12 11.90L50.12 11.90L48.43 8.90L47.11 8.90L47.11 12.05L47.11 12.05Q47.24 12.33 47.99 12.33L47.99 12.33L47.99 12.63ZM48.10 4.91L47.11 4.91L47.11 8.43L48.27 8.43L48.27 8.43Q49.39 8.43 49.81 7.99L49.81 7.99L49.81 7.99Q50.23 7.56 50.23 6.52L50.23 6.52L50.23 6.52Q50.23 5.75 49.76 5.33L49.76 5.33L49.76 5.33Q49.29 4.91 48.10 4.91L48.10 4.91ZM57.13 12.29L57.13 12.29L57.13 12.29Q58.07 12.29 58.71 11.51L58.71 11.51L58.71 11.51Q59.35 10.72 59.35 9.44L59.35 9.44L59.35 5.01L59.35 5.01Q59.22 4.73 58.46 4.73L58.46 4.73L58.46 4.44L60.70 4.44L60.70 4.73L60.70 4.73Q59.95 4.73 59.82 5.01L59.82 5.01L59.82 9.16L59.82 9.16Q59.82 10.98 59.02 11.87L59.02 11.87L59.02 11.87Q58.21 12.77 56.99 12.77L56.99 12.77L56.99 12.77Q53.63 12.77 53.63 9.16L53.63 9.16L53.63 5.01L53.63 5.01Q53.51 4.73 52.75 4.73L52.75 4.73L52.75 4.44L55.80 4.44L55.80 4.73L55.80 4.73Q55.05 4.73 54.92 5.01L54.92 5.01L54.92 9.35L54.92 9.35Q54.92 10.74 55.54 11.52L55.54 11.52L55.54 11.52Q56.15 12.29 57.13 12.29ZM63.88 12.63L61.64 12.63L61.64 12.33L61.64 12.33Q62.40 12.33 62.52 12.05L62.52 12.05L62.52 5.01L62.52 5.01Q62.40 4.73 61.64 4.73L61.64 4.73L61.64 4.44L63.52 4.44L68.15 10.16L68.15 5.01L68.15 5.01Q68.03 4.73 67.27 4.73L67.27 4.73L67.27 4.44L69.51 4.44L69.51 4.73L69.51 4.73Q68.75 4.73 68.63 5.01L68.63 5.01L68.63 12.63L68.50 12.63L63 5.67L63 12.05L63 12.05Q63.13 12.33 63.88 12.33L63.88 12.33L63.88 12.63ZM76.50 12.63L70.56 12.63L70.56 12.33L70.56 12.33Q71.32 12.33 71.44 12.05L71.44 12.05L71.44 5.01L71.44 5.01Q71.32 4.73 70.56 4.73L70.56 4.73L70.56 4.44L76.20 4.44L76.20 5.80L75.91 5.80L75.91 5.80Q75.91 5.04 75.63 4.91L75.63 4.91L72.73 4.91L72.73 8.13L74.69 8.13L74.69 8.13Q74.97 8.01 74.97 7.25L74.97 7.25L75.26 7.25L75.26 9.49L74.97 9.49L74.97 9.49Q74.97 8.74 74.69 8.61L74.69 8.61L72.73 8.61L72.73 12.15L75.92 12.15L75.92 12.15Q76.27 12.00 76.55 11.27L76.55 11.27L76.83 11.27L76.50 12.63ZM80.56 12.77L80.56 12.77L80.56 12.77Q79.87 12.77 79.16 12.56L79.16 12.56L79.16 12.56Q78.44 12.35 78.41 12.35L78.41 12.35L78.41 12.35Q78.33 12.35 78.22 12.43L78.22 12.43L78.22 12.43Q78.11 12.52 78.11 12.63L78.11 12.63L77.78 12.63L77.78 10.68L78.09 10.68L78.09 10.68Q78.25 11.52 78.93 11.91L78.93 11.91L78.93 11.91Q79.60 12.29 80.47 12.29L80.47 12.29L80.47 12.29Q81.21 12.29 81.69 11.96L81.69 11.96L81.69 11.96Q82.17 11.62 82.17 10.95L82.17 10.95L82.17 10.95Q82.17 10.64 82.03 10.39L82.03 10.39L82.03 10.39Q81.90 10.14 81.63 9.92L81.63 9.92L81.63 9.92Q81.35 9.70 81.10 9.55L81.10 9.55L81.10 9.55Q80.85 9.41 80.45 9.19L80.45 9.19L80.45 9.19Q80.05 8.97 79.84 8.85L79.84 8.85L79.84 8.85Q79.35 8.54 79.11 8.38L79.11 8.38L79.11 8.38Q78.88 8.22 78.51 7.90L78.51 7.90L78.51 7.90Q78.13 7.57 77.97 7.22L77.97 7.22L77.97 7.22Q77.80 6.87 77.80 6.47L77.80 6.47L77.80 6.47Q77.80 5.64 78.55 4.97L78.55 4.97L78.55 4.97Q79.31 4.30 80.25 4.30L80.25 4.30L80.25 4.30Q80.65 4.30 81.26 4.51L81.26 4.51L81.26 4.51Q81.86 4.72 81.94 4.72L81.94 4.72L81.94 4.72Q82.11 4.72 82.11 4.44L82.11 4.44L82.43 4.44L82.57 6.22L82.26 6.22L82.26 6.22Q82.18 5.60 81.65 5.19L81.65 5.19L81.65 5.19Q81.12 4.77 80.26 4.77L80.26 4.77L80.26 4.77Q79.62 4.77 79.23 5.19L79.23 5.19L79.23 5.19Q78.85 5.60 78.85 6.02L78.85 6.02L78.85 6.02Q78.85 6.29 78.97 6.52L78.97 6.52L78.97 6.52Q79.10 6.75 79.37 6.94L79.37 6.94L79.37 6.94Q79.63 7.14 79.87 7.29L79.87 7.29L79.87 7.29Q80.11 7.43 80.51 7.64L80.51 7.64L80.51 7.64Q80.91 7.85 81.12 7.98L81.12 7.98L81.12 7.98Q81.69 8.33 81.94 8.50L81.94 8.50L81.94 8.50Q82.19 8.67 82.59 9.02L82.59 9.02L82.59 9.02Q82.99 9.37 83.15 9.74L83.15 9.74L83.15 9.74Q83.31 10.11 83.31 10.56L83.31 10.56L83.31 10.56Q83.31 11.59 82.47 12.18L82.47 12.18L82.47 12.18Q81.63 12.77 80.56 12.77Z"></path></g><!----><g data-v-423bf9ae="" id="e3f62daf-7a72-4b3e-ad82-6999b3156ccb" transform="matrix(1.2025172322188924,0,0,1.2025172322188924,13.405450542180475,-14.55313481765743)" stroke="none" fill="black"><path d="M25.913 32.797l16.736 29.195h12.234L25.676 12.753l-36.79 63.561 5.939 11.136z"></path><path d="M31.367 43.632l-5.456-9.375L-4.631 87.45h73.934l5.811-11.826-61.882.063z"></path><path d="M21.448 62.713l-7.035 12.479h60.701L38.308 12.607H26.672l29.683 50.106z"></path></g><!----></svg>