<svg data-v-423bf9ae="" xmlns="http://www.w3.org/2000/svg" viewBox="0 0 742 90" class="iconLeft"><!----><!----><!----><g data-v-423bf9ae="" id="a83f22cc-a857-449d-b67e-cffb6ba7b05a" fill="black" transform="matrix(6.302521336710863,0,0,6.302521336710863,115.03952972034926,-7.941179995718393)"><path d="M8.67 3.78L8.67 9.58L8.67 9.58Q8.67 11.35 7.74 12.26L7.74 12.26L7.74 12.26Q6.80 13.16 5.04 13.16L5.04 13.16L5.04 13.16Q3.28 13.16 2.35 12.25L2.35 12.25L2.35 12.25Q1.41 11.34 1.41 9.58L1.41 9.58L1.41 3.78L2.53 3.78L2.53 9.30L2.53 9.30Q2.53 10.75 3.14 11.43L3.14 11.43L3.14 11.43Q3.75 12.11 5.04 12.11L5.04 12.11L5.04 12.11Q6.33 12.11 6.94 11.43L6.94 11.43L6.94 11.43Q7.55 10.75 7.55 9.30L7.55 9.30L7.55 3.78L8.67 3.78ZM17.44 13.02L14.92 9.18L12.71 9.18L12.71 13.02L11.59 13.02L11.59 3.78L15.09 3.78L15.09 3.78Q16.51 3.78 17.36 4.51L17.36 4.51L17.36 4.51Q18.21 5.24 18.21 6.48L18.21 6.48L18.21 6.48Q18.21 7.46 17.67 8.13L17.67 8.13L17.67 8.13Q17.12 8.81 16.17 9.06L16.17 9.06L18.77 13.02L17.44 13.02ZM12.71 4.83L12.71 8.13L15.08 8.13L15.08 8.13Q17.04 8.13 17.04 6.48L17.04 6.48L17.04 6.48Q17.04 4.83 15.08 4.83L15.08 4.83L12.71 4.83ZM20.90 13.02L20.90 3.78L24.19 3.78L24.19 3.78Q25.79 3.78 26.57 4.44L26.57 4.44L26.57 4.44Q27.34 5.11 27.34 6.33L27.34 6.33L27.34 6.33Q27.34 7.06 26.93 7.62L26.93 7.62L26.93 7.62Q26.52 8.18 25.79 8.32L25.79 8.32L25.79 8.33L25.79 8.33Q26.60 8.48 27.09 9.07L27.09 9.07L27.09 9.07Q27.58 9.66 27.58 10.43L27.58 10.43L27.58 10.43Q27.58 11.62 26.68 12.32L26.68 12.32L26.68 12.32Q25.79 13.02 24.18 13.02L24.18 13.02L20.90 13.02ZM22.02 7.84L24.21 7.84L24.21 7.84Q25.20 7.84 25.68 7.47L25.68 7.47L25.68 7.47Q26.17 7.10 26.17 6.33L26.17 6.33L26.17 6.33Q26.17 4.83 24.21 4.83L24.21 4.83L22.02 4.83L22.02 7.84ZM22.02 11.97L24.44 11.97L24.44 11.97Q25.42 11.97 25.91 11.57L25.91 11.57L25.91 11.57Q26.40 11.17 26.40 10.43L26.40 10.43L26.40 10.43Q26.40 9.69 25.91 9.29L25.91 9.29L25.91 9.29Q25.42 8.89 24.44 8.89L24.44 8.89L22.02 8.89L22.02 11.97ZM36.08 13.02L35.10 10.46L30.91 10.46L29.93 13.02L28.76 13.02L32.35 3.78L33.68 3.78L37.27 13.02L36.08 13.02ZM31.32 9.41L34.69 9.41L33.45 6.13L33.01 4.84L32.98 4.84L32.58 6.09L31.32 9.41ZM46.40 3.78L46.40 13.02L45.01 13.02L41.15 6.83L40.17 5.01L40.15 5.01L40.21 6.50L40.21 13.02L39.14 13.02L39.14 3.78L40.53 3.78L44.38 9.94L45.37 11.79L45.39 11.79L45.33 10.30L45.33 3.78L46.40 3.78ZM60.05 13.02L57.53 9.18L55.31 9.18L55.31 13.02L54.19 13.02L54.19 3.78L57.69 3.78L57.69 3.78Q59.11 3.78 59.96 4.51L59.96 4.51L59.96 4.51Q60.82 5.24 60.82 6.48L60.82 6.48L60.82 6.48Q60.82 7.46 60.27 8.13L60.27 8.13L60.27 8.13Q59.72 8.81 58.77 9.06L58.77 9.06L61.38 13.02L60.05 13.02ZM55.31 4.83L55.31 8.13L57.68 8.13L57.68 8.13Q59.64 8.13 59.64 6.48L59.64 6.48L59.64 6.48Q59.64 4.83 57.68 4.83L57.68 4.83L55.31 4.83ZM70.66 3.78L70.66 9.58L70.66 9.58Q70.66 11.35 69.73 12.26L69.73 12.26L69.73 12.26Q68.80 13.16 67.03 13.16L67.03 13.16L67.03 13.16Q65.27 13.16 64.34 12.25L64.34 12.25L64.34 12.25Q63.41 11.34 63.41 9.58L63.41 9.58L63.41 3.78L64.53 3.78L64.53 9.30L64.53 9.30Q64.53 10.75 65.14 11.43L65.14 11.43L65.14 11.43Q65.74 12.11 67.03 12.11L67.03 12.11L67.03 12.11Q68.32 12.11 68.93 11.43L68.93 11.43L68.93 11.43Q69.54 10.75 69.54 9.30L69.54 9.30L69.54 3.78L70.66 3.78ZM80.84 3.78L80.84 13.02L79.45 13.02L75.59 6.83L74.61 5.01L74.59 5.01L74.65 6.50L74.65 13.02L73.58 13.02L73.58 3.78L74.97 3.78L78.82 9.94L79.81 11.79L79.83 11.79L79.77 10.30L79.77 3.78L80.84 3.78ZM84.98 11.97L90.55 11.97L90.55 13.02L83.86 13.02L83.86 3.78L90.34 3.78L90.34 4.83L84.98 4.83L84.98 7.81L89.15 7.81L89.15 8.86L84.98 8.86L84.98 11.97ZM95.76 3.64L95.76 3.64Q98.24 3.64 99.33 5.60L99.33 5.60L98.36 6.38L98.36 6.38Q97.94 5.46 97.36 5.07L97.36 5.07L97.36 5.07Q96.78 4.69 95.77 4.69L95.77 4.69L95.77 4.69Q94.71 4.69 94.10 5.13L94.10 5.13L94.10 5.13Q93.49 5.57 93.49 6.26L93.49 6.26L93.49 6.26Q93.49 6.71 93.73 7.00L93.73 7.00L93.73 7.00Q93.97 7.29 94.52 7.51L94.52 7.51L94.52 7.51Q95.07 7.73 96.05 7.90L96.05 7.90L96.05 7.90Q97.89 8.20 98.65 8.82L98.65 8.82L98.65 8.82Q99.41 9.44 99.41 10.53L99.41 10.53L99.41 10.53Q99.41 11.31 98.97 11.91L98.97 11.91L98.97 11.91Q98.53 12.50 97.72 12.83L97.72 12.83L97.72 12.83Q96.91 13.16 95.84 13.16L95.84 13.16L95.84 13.16Q94.44 13.16 93.46 12.61L93.46 12.61L93.46 12.61Q92.47 12.07 91.95 11.16L91.95 11.16L92.92 10.37L92.92 10.37Q93.30 11.20 94.03 11.65L94.03 11.65L94.03 11.65Q94.77 12.11 95.87 12.11L95.87 12.11L95.87 12.11Q96.96 12.11 97.61 11.71L97.61 11.71L97.61 11.71Q98.25 11.31 98.25 10.58L98.25 10.58L98.25 10.58Q98.25 9.97 97.69 9.60L97.69 9.60L97.69 9.60Q97.13 9.24 95.70 8.99L95.70 8.99L95.70 8.99Q93.86 8.67 93.09 8.06L93.09 8.06L93.09 8.06Q92.32 7.46 92.32 6.38L92.32 6.38L92.32 6.38Q92.32 5.64 92.74 5.01L92.74 5.01L92.74 5.01Q93.16 4.38 93.94 4.01L93.94 4.01L93.94 4.01Q94.72 3.64 95.76 3.64L95.76 3.64Z"></path></g><!----><g data-v-423bf9ae="" id="cb2c5e9c-008e-4d1b-8d30-d807864a9f29" transform="matrix(1.154734374914348,0,0,1.154734374914348,-5.736718745717397,-12.70672011398672)" stroke="none" fill="black"><path style="text-indent:0;text-transform:none;block-progression:tb" d="M50 11.031l-1.625 2.813-3.719 6.469-.531.937.531.938 25.75 44.593h-24.75l-.531.938-3.719 6.5L39.781 77H43l41.875.031L88.094 77l-1.625-2.813-34.844-60.343L50 11.03zM43.094 23l-1.625 2.813L6.625 86.186 5 88.97h11.813l.53-.938 25.75-44.594 11.844 20.47.5.937H67.25l-1.625-2.781-20.906-36.25L43.094 23zm-.125 24.125l-1.594 2.813-20.938 36.218-1.625 2.813H95l-1.625-2.813-3.719-6.469-.562-.937H36.53l11.813-20.469.531-.937-.531-.938-3.75-6.468-1.625-2.813z" overflow="visible" color="#000"></path></g><!----></svg>